<mxfile host="Electron" modified="2024-03-26T15:25:41.711Z" agent="Mozilla/5.0 (Windows NT 10.0; Win64; x64) AppleWebKit/537.36 (KHTML, like Gecko) draw.io/24.1.0 Chrome/120.0.6099.109 Electron/28.1.0 Safari/537.36" etag="qsSTCnR5HK4w4WoXnMOv" version="24.1.0" type="device">
  <diagram name="Page-1" id="Uwz1VjY2X7CQ2FCBojZC">
    <mxGraphModel dx="880" dy="524" grid="1" gridSize="10" guides="1" tooltips="1" connect="1" arrows="1" fold="1" page="1" pageScale="1" pageWidth="850" pageHeight="1100" math="0" shadow="0">
      <root>
        <mxCell id="0" />
        <mxCell id="1" parent="0" />
        <mxCell id="DHGK1EamWplCoMzlDir1-5" style="edgeStyle=orthogonalEdgeStyle;rounded=0;orthogonalLoop=1;jettySize=auto;html=1;entryX=0.5;entryY=1;entryDx=0;entryDy=0;endSize=12;endArrow=block;endFill=0;dashed=1;" edge="1" parent="1" source="6aUZwElzNBIGGaAz5LES-1" target="DHGK1EamWplCoMzlDir1-2">
          <mxGeometry relative="1" as="geometry" />
        </mxCell>
        <mxCell id="DHGK1EamWplCoMzlDir1-6" style="edgeStyle=orthogonalEdgeStyle;rounded=0;orthogonalLoop=1;jettySize=auto;html=1;entryX=1;entryY=0.75;entryDx=0;entryDy=0;endArrow=open;endFill=0;" edge="1" parent="1" source="6aUZwElzNBIGGaAz5LES-1" target="DHGK1EamWplCoMzlDir1-1">
          <mxGeometry relative="1" as="geometry" />
        </mxCell>
        <mxCell id="6aUZwElzNBIGGaAz5LES-1" value="&lt;p style=&quot;margin:0px;margin-top:4px;text-align:center;&quot;&gt;&lt;b&gt;Mediator&lt;/b&gt;&lt;/p&gt;&lt;hr size=&quot;1&quot; style=&quot;border-style:solid;&quot;&gt;&lt;p style=&quot;margin:0px;margin-left:4px;&quot;&gt;&lt;br&gt;&lt;/p&gt;&lt;hr size=&quot;1&quot; style=&quot;border-style:solid;&quot;&gt;&lt;p style=&quot;margin:0px;margin-left:4px;&quot;&gt;&lt;br&gt;&lt;/p&gt;" style="verticalAlign=top;align=left;overflow=fill;html=1;whiteSpace=wrap;" parent="1" vertex="1">
          <mxGeometry x="520" y="320" width="160" height="90" as="geometry" />
        </mxCell>
        <mxCell id="DHGK1EamWplCoMzlDir1-1" value="&lt;p style=&quot;margin:0px;margin-top:4px;text-align:center;&quot;&gt;&lt;i&gt;&amp;lt;&amp;lt;Interface&amp;gt;&amp;gt;&lt;/i&gt;&lt;br&gt;&lt;b&gt;ICollegue&lt;/b&gt;&lt;/p&gt;&lt;hr size=&quot;1&quot; style=&quot;border-style:solid;&quot;&gt;&lt;p style=&quot;margin:0px;margin-left:4px;&quot;&gt;&lt;br&gt;&lt;/p&gt;&lt;hr size=&quot;1&quot; style=&quot;border-style:solid;&quot;&gt;&lt;p style=&quot;margin: 0px 0px 0px 4px; line-height: 160%;&quot;&gt;+ Recieve()&lt;br&gt;+ Send()&lt;/p&gt;" style="verticalAlign=top;align=left;overflow=fill;html=1;whiteSpace=wrap;" vertex="1" parent="1">
          <mxGeometry x="60" y="120" width="190" height="120" as="geometry" />
        </mxCell>
        <mxCell id="DHGK1EamWplCoMzlDir1-3" style="edgeStyle=orthogonalEdgeStyle;rounded=0;orthogonalLoop=1;jettySize=auto;html=1;entryX=1;entryY=0.5;entryDx=0;entryDy=0;endArrow=diamond;endFill=0;endSize=12;" edge="1" parent="1" source="DHGK1EamWplCoMzlDir1-2" target="DHGK1EamWplCoMzlDir1-1">
          <mxGeometry relative="1" as="geometry" />
        </mxCell>
        <mxCell id="DHGK1EamWplCoMzlDir1-2" value="&lt;p style=&quot;margin:0px;margin-top:4px;text-align:center;&quot;&gt;&lt;i&gt;&amp;lt;&amp;lt;Interface&amp;gt;&amp;gt;&lt;/i&gt;&lt;br&gt;&lt;b&gt;IMediator&lt;/b&gt;&lt;/p&gt;&lt;hr size=&quot;1&quot; style=&quot;border-style:solid;&quot;&gt;&lt;p style=&quot;margin:0px;margin-left:4px;&quot;&gt;&lt;br&gt;&lt;/p&gt;&lt;hr size=&quot;1&quot; style=&quot;border-style:solid;&quot;&gt;&lt;p style=&quot;margin: 0px 0px 0px 4px; line-height: 160%;&quot;&gt;+ Register(clg: ICollegue)&lt;br&gt;+ Distribute(clg: ICollegue)&lt;/p&gt;" style="verticalAlign=top;align=left;overflow=fill;html=1;whiteSpace=wrap;" vertex="1" parent="1">
          <mxGeometry x="490" y="120" width="190" height="120" as="geometry" />
        </mxCell>
        <mxCell id="DHGK1EamWplCoMzlDir1-4" value="-mediator" style="text;html=1;align=center;verticalAlign=middle;resizable=0;points=[];autosize=1;strokeColor=none;fillColor=none;" vertex="1" parent="1">
          <mxGeometry x="412" y="146" width="70" height="30" as="geometry" />
        </mxCell>
        <mxCell id="DHGK1EamWplCoMzlDir1-8" style="edgeStyle=orthogonalEdgeStyle;rounded=0;orthogonalLoop=1;jettySize=auto;html=1;entryX=0.5;entryY=1;entryDx=0;entryDy=0;endArrow=block;endFill=0;endSize=12;dashed=1;" edge="1" parent="1" source="DHGK1EamWplCoMzlDir1-7" target="DHGK1EamWplCoMzlDir1-1">
          <mxGeometry relative="1" as="geometry" />
        </mxCell>
        <mxCell id="DHGK1EamWplCoMzlDir1-7" value="&lt;p style=&quot;margin:0px;margin-top:4px;text-align:center;&quot;&gt;&lt;b&gt;Collegue&lt;/b&gt;&lt;/p&gt;&lt;hr size=&quot;1&quot; style=&quot;border-style:solid;&quot;&gt;&lt;p style=&quot;margin:0px;margin-left:4px;&quot;&gt;&lt;br&gt;&lt;/p&gt;&lt;hr size=&quot;1&quot; style=&quot;border-style:solid;&quot;&gt;&lt;p style=&quot;margin: 0px 0px 0px 4px; line-height: 140%;&quot;&gt;+ Recieve()&lt;/p&gt;&lt;p style=&quot;margin: 0px 0px 0px 4px; line-height: 140%;&quot;&gt;+ Send()&lt;/p&gt;" style="verticalAlign=top;align=left;overflow=fill;html=1;whiteSpace=wrap;" vertex="1" parent="1">
          <mxGeometry x="60" y="370" width="160" height="100" as="geometry" />
        </mxCell>
      </root>
    </mxGraphModel>
  </diagram>
</mxfile>
